{
  "accessors": [
    {
      "bufferView": 0,
      "componentType": 5126,
      "count": 60,
      "type": "VEC3",
      "max": [
        0.0,
        0.0,
        -0.059045761823654175
      ],
      "min": [
        -0.32034873962402344,
        -0.61112844944000244,
        -0.82239532470703125
      ]
    },
    {
      "bufferView": 1,
      "componentType": 5126,
      "count": 60,
      "type": "VEC3",
      "max": [
        1.0,
        1.0,
        0.77632433176040649
      ],
      "min": [
        -1.0,
        -1.0,
        -0.77632427215576172
      ]
    },
    {
      "bufferView": 2,
      "componentType": 5126,
      "count": 60,
      "type": "VEC4",
      "max": [
        1.0,
        0.0,
        1.0,
        -1.0
      ],
      "min": [
        -1.0,
        0.0,
        -1.0,
        -1.0
      ]
    },
    {
      "bufferView": 3,
      "componentType": 5126,
      "count": 60,
      "type": "VEC2",
      "max": [
        0.7555275559425354,
        0.0
      ],
      "min": [
        -0.82131403684616089,
        -0.82239532470703125
      ]
    },
    {
      "bufferView": 4,
      "componentType": 5125,
      "count": 72,
      "type": "SCALAR",
      "max": [
        59.0
      ],
      "min": [
        0.0
      ]
    },
    {
      "bufferView": 5,
      "componentType": 5126,
      "count": 1536,
      "type": "VEC3",
      "max": [
        -1.1920928955078125E-07,
        7.4505805969238281E-09,
        4.76837158203125E-07
      ],
      "min": [
        -0.71968591213226318,
        -0.17357021570205688,
        -0.92115449905395508
      ]
    },
    {
      "bufferView": 6,
      "componentType": 5126,
      "count": 1536,
      "type": "VEC3",
      "max": [
        1.0,
        1.0,
        1.0
      ],
      "min": [
        -1.0,
        -1.0,
        -1.0
      ]
    },
    {
      "bufferView": 7,
      "componentType": 5126,
      "count": 1536,
      "type": "VEC4",
      "max": [
        1.0,
        0.65933537483215332,
        1.0,
        -1.0
      ],
      "min": [
        -1.0,
        -0.6593354344367981,
        -1.0,
        -1.0
      ]
    },
    {
      "bufferView": 8,
      "componentType": 5126,
      "count": 1536,
      "type": "VEC2",
      "max": [
        0.39031144976615906,
        0.43128818273544312
      ],
      "min": [
        -0.39031144976615906,
        -0.43128818273544312
      ]
    },
    {
      "bufferView": 9,
      "componentType": 5125,
      "count": 2304,
      "type": "SCALAR",
      "max": [
        1535.0
      ],
      "min": [
        0.0
      ]
    }
  ],
  "asset": {
    "generator": "UnityGLTF (2022.3.11f1)",
    "version": "2.0"
  },
  "buffers": [
    {
      "uri": "b.bin",
      "byteLength": 86112
    }
  ],
  "bufferViews": [
    {
      "buffer": 0,
      "byteLength": 720
    },
    {
      "buffer": 0,
      "byteOffset": 720,
      "byteLength": 720
    },
    {
      "buffer": 0,
      "byteOffset": 1440,
      "byteLength": 960
    },
    {
      "buffer": 0,
      "byteOffset": 2400,
      "byteLength": 480
    },
    {
      "buffer": 0,
      "byteOffset": 2880,
      "byteLength": 288
    },
    {
      "buffer": 0,
      "byteOffset": 3168,
      "byteLength": 18432
    },
    {
      "buffer": 0,
      "byteOffset": 21600,
      "byteLength": 18432
    },
    {
      "buffer": 0,
      "byteOffset": 40032,
      "byteLength": 24576
    },
    {
      "buffer": 0,
      "byteOffset": 64608,
      "byteLength": 12288
    },
    {
      "buffer": 0,
      "byteOffset": 76896,
      "byteLength": 9216
    }
  ],
  "materials": [
    {
      "pbrMetallicRoughness": {
        "baseColorFactor": [
          0.165500164,
          1.0,
          0.0,
          1.0
        ],
        "metallicFactor": 0.0,
        "roughnessFactor": 0.5
      },
      "name": "material_b"
    }
  ],
  "meshes": [
    {
      "primitives": [
        {
          "attributes": {
            "POSITION": 0,
            "NORMAL": 1,
            "TANGENT": 2,
            "TEXCOORD_0": 3
          },
          "indices": 4,
          "material": 0
        }
      ],
      "name": "Cylinder"
    },
    {
      "primitives": [
        {
          "attributes": {
            "POSITION": 5,
            "NORMAL": 6,
            "TANGENT": 7,
            "TEXCOORD_0": 8
          },
          "indices": 9,
          "material": 0
        }
      ],
      "name": "Torus"
    }
  ],
  "nodes": [
    {
      "children": [
        1,
        2
      ],
      "rotation": [
        0.0,
        0.0,
        0.0,
        -1.0
      ],
      "translation": [
        0.0,
        0.0,
        12.0
      ],
      "name": "b"
    },
    {
      "mesh": 0,
      "rotation": [
        0.0,
        0.0,
        0.0,
        -1.0
      ],
      "scale": [
        0.785710037,
        1.7265718,
        0.1946808
      ],
      "translation": [
        -0.0513620377,
        0.337940425,
        0.06791592
      ],
      "name": "Cylinder"
    },
    {
      "mesh": 1,
      "rotation": [
        0.6777246,
        0.0,
        0.0,
        -0.735315859
      ],
      "scale": [
        0.760510445,
        0.88209,
        0.7535211
      ],
      "translation": [
        -0.138862014,
        -0.761269569,
        0.0429162979
      ],
      "name": "Torus"
    }
  ],
  "scene": 0,
  "scenes": [
    {
      "nodes": [
        0
      ],
      "name": "b"
    }
  ]
}