{
  "accessors": [
    {
      "bufferView": 1,
      "componentType": 5126,
      "count": 7841,
      "max": [
        0.4991239309310913,
        0.4997205436229706,
        0.30117297172546387
      ],
      "min": [
        -0.5,
        -0.4999113976955414,
        -0.30117297172546387
      ],
      "type": "VEC3"
    },
    {
      "bufferView": 1,
      "byteOffset": 94092,
      "componentType": 5126,
      "count": 7841,
      "max": [
        1.0,
        0.9996991753578186,
        1.0
      ],
      "min": [
        -1.0,
        -0.9996521472930908,
        -1.0
      ],
      "type": "VEC3"
    },
    {
      "bufferView": 0,
      "componentType": 5125,
      "count": 47010,
      "type": "SCALAR"
    },
    {
      "bufferView": 1,
      "byteOffset": 188184,
      "componentType": 5126,
      "count": 1085,
      "max": [
        0.49993255734443665,
        0.49806442856788635,
        0.031599145382642746
      ],
      "min": [
        -0.4998626708984375,
        -0.5,
        -0.031599145382642746
      ],
      "type": "VEC3"
    },
    {
      "bufferView": 1,
      "byteOffset": 201204,
      "componentType": 5126,
      "count": 1085,
      "max": [
        0.9997091293334961,
        0.9345967769622803,
        0.9999990463256836
      ],
      "min": [
        -0.9999704360961914,
        -0.8635826110839844,
        -0.9999990463256836
      ],
      "type": "VEC3"
    },
    {
      "bufferView": 0,
      "byteOffset": 188040,
      "componentType": 5125,
      "count": 6498,
      "type": "SCALAR"
    },
    {
      "bufferView": 1,
      "byteOffset": 214224,
      "componentType": 5126,
      "count": 1774,
      "max": [
        0.49505528807640076,
        0.499208003282547,
        0.09650376439094543
      ],
      "min": [
        -0.4991355836391449,
        -0.4997117519378662,
        -0.09650376439094543
      ],
      "type": "VEC3"
    },
    {
      "bufferView": 1,
      "byteOffset": 235512,
      "componentType": 5126,
      "count": 1774,
      "max": [
        0.9705708026885986,
        0.9921631217002869,
        0.9999343156814575
      ],
      "min": [
        -0.9779118895530701,
        -0.9175361394882202,
        -0.9999343156814575
      ],
      "type": "VEC3"
    },
    {
      "bufferView": 0,
      "byteOffset": 214032,
      "componentType": 5125,
      "count": 10620,
      "type": "SCALAR"
    },
    {
      "bufferView": 1,
      "byteOffset": 256800,
      "componentType": 5126,
      "count": 10803,
      "max": [
        0.49968045949935913,
        0.49942493438720703,
        0.45651566982269287
      ],
      "min": [
        -0.4997762441635132,
        -0.4996146559715271,
        -0.45651566982269287
      ],
      "type": "VEC3"
    },
    {
      "bufferView": 1,
      "byteOffset": 386436,
      "componentType": 5126,
      "count": 10803,
      "max": [
        0.9980664849281311,
        0.9969573020935059,
        0.9999998211860657
      ],
      "min": [
        -0.9993864893913269,
        -0.9980673789978027,
        -0.9999998211860657
      ],
      "type": "VEC3"
    },
    {
      "bufferView": 0,
      "byteOffset": 256512,
      "componentType": 5125,
      "count": 64806,
      "type": "SCALAR"
    },
    {
      "bufferView": 1,
      "byteOffset": 516072,
      "componentType": 5126,
      "count": 4522,
      "max": [
        0.5,
        0.4998321533203125,
        0.44186970591545105
      ],
      "min": [
        -0.5,
        -0.49950629472732544,
        -0.44186970591545105
      ],
      "type": "VEC3"
    },
    {
      "bufferView": 1,
      "byteOffset": 570336,
      "componentType": 5126,
      "count": 4522,
      "max": [
        1.0,
        0.9987667202949524,
        0.999983549118042
      ],
      "min": [
        -1.0,
        -0.9980984330177307,
        -0.999983549118042
      ],
      "type": "VEC3"
    },
    {
      "bufferView": 0,
      "byteOffset": 515736,
      "componentType": 5125,
      "count": 27120,
      "type": "SCALAR"
    },
    {
      "bufferView": 1,
      "byteOffset": 624600,
      "componentType": 5126,
      "count": 9161,
      "max": [
        0.49986207485198975,
        0.4998711049556732,
        0.46463608741760254
      ],
      "min": [
        -0.4994770884513855,
        -0.4998626410961151,
        -0.46463608741760254
      ],
      "type": "VEC3"
    },
    {
      "bufferView": 1,
      "byteOffset": 734532,
      "componentType": 5126,
      "count": 9161,
      "max": [
        0.9998003840446472,
        0.9993343353271484,
        0.9999828338623047
      ],
      "min": [
        -1.0,
        -0.9972773194313049,
        -0.9999828338623047
      ],
      "type": "VEC3"
    },
    {
      "bufferView": 0,
      "byteOffset": 624216,
      "componentType": 5125,
      "count": 54954,
      "type": "SCALAR"
    },
    {
      "bufferView": 1,
      "byteOffset": 844464,
      "componentType": 5126,
      "count": 4522,
      "max": [
        0.5,
        0.4998321533203125,
        0.44186970591545105
      ],
      "min": [
        -0.5,
        -0.49950629472732544,
        -0.44186970591545105
      ],
      "type": "VEC3"
    },
    {
      "bufferView": 1,
      "byteOffset": 898728,
      "componentType": 5126,
      "count": 4522,
      "max": [
        1.0,
        0.9987667202949524,
        0.999983549118042
      ],
      "min": [
        -1.0,
        -0.9980984330177307,
        -0.999983549118042
      ],
      "type": "VEC3"
    },
    {
      "bufferView": 0,
      "byteOffset": 844032,
      "componentType": 5125,
      "count": 27120,
      "type": "SCALAR"
    }
  ],
  "asset": {
    "extras": {
      "author": "aniandronic (https://sketchfab.com/aniandronic)",
      "license": "CC-BY-4.0 (http://creativecommons.org/licenses/by/4.0/)",
      "source": "https://sketchfab.com/3d-models/harrymations-b-russian-alphabet-lore-e1afb76a677a40e386116f8bca26d113",
      "title": "Harrymations B (Russian Alphabet Lore)"
    },
    "generator": "Sketchfab-14.64.0",
    "version": "2.0"
  },
  "bufferViews": [
    {
      "buffer": 0,
      "byteLength": 952512,
      "name": "floatBufferViews",
      "target": 34963
    },
    {
      "buffer": 0,
      "byteLength": 952992,
      "byteOffset": 952512,
      "byteStride": 12,
      "name": "floatBufferViews",
      "target": 34962
    }
  ],
  "buffers": [
    {
      "byteLength": 1905504,
      "uri": "scene.bin"
    }
  ],
  "materials": [
    {
      "doubleSided": true,
      "name": "Material_44",
      "pbrMetallicRoughness": {
        "baseColorFactor": [
          0.00784314,
          0.258824,
          0.494118,
          1.0
        ],
        "metallicFactor": 0.0
      }
    },
    {
      "doubleSided": true,
      "name": "Material_68",
      "pbrMetallicRoughness": {
        "baseColorFactor": [
          0.0,
          0.0,
          0.0,
          1.0
        ],
        "metallicFactor": 0.0
      }
    },
    {
      "doubleSided": true,
      "name": "Material_72",
      "pbrMetallicRoughness": {
        "baseColorFactor": [
          0.854902,
          0.854902,
          0.854902,
          1.0
        ],
        "metallicFactor": 0.0
      }
    },
    {
      "doubleSided": true,
      "name": "Material_52",
      "pbrMetallicRoughness": {
        "metallicFactor": 0.0
      }
    },
    {
      "doubleSided": true,
      "name": "Material_67",
      "pbrMetallicRoughness": {
        "baseColorFactor": [
          0.0,
          0.0,
          0.0,
          1.0
        ],
        "metallicFactor": 0.0
      }
    },
    {
      "doubleSided": true,
      "name": "Material_48",
      "pbrMetallicRoughness": {
        "metallicFactor": 0.0
      }
    },
    {
      "doubleSided": true,
      "name": "Material_62",
      "pbrMetallicRoughness": {
        "baseColorFactor": [
          0.0,
          0.0,
          0.0,
          1.0
        ],
        "metallicFactor": 0.0
      }
    }
  ],
  "meshes": [
    {
      "name": "root_Material_44_0",
      "primitives": [
        {
          "attributes": {
            "NORMAL": 1,
            "POSITION": 0
          },
          "indices": 2,
          "material": 0,
          "mode": 4
        }
      ]
    },
    {
      "name": "root_Material_68_0",
      "primitives": [
        {
          "attributes": {
            "NORMAL": 4,
            "POSITION": 3
          },
          "indices": 5,
          "material": 1,
          "mode": 4
        }
      ]
    },
    {
      "name": "root_Material_72_0",
      "primitives": [
        {
          "attributes": {
            "NORMAL": 7,
            "POSITION": 6
          },
          "indices": 8,
          "material": 2,
          "mode": 4
        }
      ]
    },
    {
      "name": "root_Material_52_0",
      "primitives": [
        {
          "attributes": {
            "NORMAL": 10,
            "POSITION": 9
          },
          "indices": 11,
          "material": 3,
          "mode": 4
        }
      ]
    },
    {
      "name": "root_Material_67_0",
      "primitives": [
        {
          "attributes": {
            "NORMAL": 13,
            "POSITION": 12
          },
          "indices": 14,
          "material": 4,
          "mode": 4
        }
      ]
    },
    {
      "name": "root_Material_48_0",
      "primitives": [
        {
          "attributes": {
            "NORMAL": 16,
            "POSITION": 15
          },
          "indices": 17,
          "material": 5,
          "mode": 4
        }
      ]
    },
    {
      "name": "root_Material_62_0",
      "primitives": [
        {
          "attributes": {
            "NORMAL": 19,
            "POSITION": 18
          },
          "indices": 20,
          "material": 6,
          "mode": 4
        }
      ]
    }
  ],
  "nodes": [
    {
      "children": [
        1
      ],
      "matrix": [
        1.0,
        0.0,
        0.0,
        0.0,
        0.0,
        2.220446049250313e-16,
        -1.0,
        0.0,
        0.0,
        1.0,
        2.220446049250313e-16,
        0.0,
        0.0,
        0.0,
        0.0,
        1.0
      ],
      "name": "Sketchfab_model"
    },
    {
      "children": [
        2
      ],
      "matrix": [
        0.009999999776482582,
        0.0,
        0.0,
        0.0,
        0.0,
        0.0,
        0.009999999776482582,
        0.0,
        0.0,
        -0.009999999776482582,
        0.0,
        0.0,
        0.0,
        0.0,
        0.0,
        1.0
      ],
      "name": "1a7555df8d11458391a23456ad740526.fbx"
    },
    {
      "children": [
        3
      ],
      "name": "RootNode"
    },
    {
      "children": [
        4,
        7,
        10,
        13,
        16,
        19,
        22
      ],
      "name": "root"
    },
    {
      "children": [
        5
      ],
      "name": "root"
    },
    {
      "children": [
        6
      ],
      "matrix": [
        0.31582099199295044,
        0.0,
        -0.0,
        0.0,
        0.0,
        0.4523570239543915,
        0.0,
        0.0,
        0.0,
        0.0,
        0.22617851197719574,
        0.0,
        -0.004334473051130772,
        0.0015043793246150017,
        0.171043261885643,
        1.0
      ],
      "name": "Object_5"
    },
    {
      "mesh": 0,
      "name": "root_Material_44_0"
    },
    {
      "children": [
        8
      ],
      "name": "root"
    },
    {
      "children": [
        9
      ],
      "matrix": [
        0.13741077482700348,
        0.0,
        -0.0,
        0.0,
        0.0,
        0.0177907757461071,
        0.0,
        0.0,
        0.0,
        0.0,
        0.06870538741350174,
        0.0,
        -0.01916983164846897,
        -0.1493772566318512,
        0.2350071668624878,
        1.0
      ],
      "name": "Object_8"
    },
    {
      "mesh": 1,
      "name": "root_Material_68_0"
    },
    {
      "children": [
        11
      ],
      "name": "root"
    },
    {
      "children": [
        12
      ],
      "matrix": [
        0.11451155692338943,
        0.0,
        -0.0,
        0.0,
        0.0,
        0.026786645874381065,
        0.0,
        0.0,
        0.0,
        0.0,
        0.05725577846169472,
        0.0,
        -0.02775992639362812,
        -0.1587827354669571,
        0.2350071668624878,
        1.0
      ],
      "name": "Object_11"
    },
    {
      "mesh": 2,
      "name": "root_Material_72_0"
    },
    {
      "children": [
        14
      ],
      "name": "root"
    },
    {
      "children": [
        15
      ],
      "matrix": [
        0.11895483732223511,
        0.0,
        -0.0,
        0.0,
        0.0,
        0.113085076212883,
        0.0,
        0.0,
        0.0,
        0.0,
        0.059477418661117554,
        0.0,
        0.0986393392086029,
        -0.08906586468219757,
        0.2237718403339386,
        1.0
      ],
      "name": "Object_14"
    },
    {
      "mesh": 3,
      "name": "root_Material_52_0"
    },
    {
      "children": [
        17
      ],
      "name": "root"
    },
    {
      "children": [
        18
      ],
      "matrix": [
        0.04899415746331215,
        0.0,
        -0.0,
        0.0,
        0.0,
        0.04569980502128601,
        0.0,
        0.0,
        0.0,
        0.0,
        0.022719351574778557,
        0.0,
        0.09218484163284302,
        -0.09061282128095627,
        0.24562673270702362,
        1.0
      ],
      "name": "Object_17"
    },
    {
      "mesh": 4,
      "name": "root_Material_67_0"
    },
    {
      "children": [
        20
      ],
      "name": "root"
    },
    {
      "children": [
        21
      ],
      "matrix": [
        0.1072019413113594,
        0.0,
        -0.0,
        0.0,
        0.0,
        0.10464852303266525,
        0.0,
        0.0,
        0.0,
        0.0,
        0.0536009706556797,
        0.0,
        -0.12900403141975403,
        -0.09035855531692505,
        0.22370626032352448,
        1.0
      ],
      "name": "Object_20"
    },
    {
      "mesh": 5,
      "name": "root_Material_48_0"
    },
    {
      "children": [
        23
      ],
      "name": "root"
    },
    {
      "children": [
        24
      ],
      "matrix": [
        0.045438703149557114,
        0.0,
        -0.0,
        0.0,
        0.0,
        0.04198277369141579,
        0.0,
        0.0,
        0.0,
        0.0,
        0.022719351574778557,
        0.0,
        -0.12926915287971497,
        -0.09117027372121811,
        0.24562664330005646,
        1.0
      ],
      "name": "Object_23"
    },
    {
      "mesh": 6,
      "name": "root_Material_62_0"
    }
  ],
  "scene": 0,
  "scenes": [
    {
      "name": "Sketchfab_Scene",
      "nodes": [
        0
      ]
    }
  ]
}
